<svg xmlns="http://www.w3.org/2000/svg" viewBox="0 0 640 480" role="img" aria-label="Illustration of a classic short-sleeve tee"><defs><linearGradient id="bg" x2="1" y2="1"><stop stop-color="#e8e5d9"/><stop offset="1" stop-color="#cdd2c7"/></linearGradient><linearGradient id="cloth" x2=".1" y2="1"><stop stop-color="#f6f3eb"/><stop offset="1" stop-color="#bdc4b9"/></linearGradient><filter id="shadow" x="-30%" y="-30%" width="160%" height="180%"><feGaussianBlur stdDeviation="13"/></filter></defs><rect width="640" height="480" fill="url(#bg)"/><path d="M0 376 Q320 326 640 370 V480 H0Z" fill="#fff" opacity=".14"/><ellipse cx="320" cy="402" rx="174" ry="27" fill="#34342d" opacity=".18" filter="url(#shadow)"/><path d="M260 104 Q320 137 380 104 L449 145 506 211 454 249 417 217 417 372 Q320 387 223 372 V217 L186 249 134 211 191 145Z" fill="url(#cloth)" stroke="#68786d" stroke-width="3"/><path d="M260 104 Q320 137 380 104 Q362 148 320 151 Q278 148 260 104Z" fill="#d7dfd5" stroke="#68786d" stroke-width="3"/><path d="M225 225 L225 364 Q320 378 415 364 M191 148 L224 220 M449 148 L416 220" fill="none" stroke="#fff" stroke-opacity=".46" stroke-width="3"/><path d="M293 169 H347" stroke="#7b897e" stroke-opacity=".5" stroke-width="2"/><path d="M55 68 h530" stroke="#fff" stroke-opacity=".24"/><path d="M55 412 h530" stroke="#34342d" stroke-opacity=".09"/></svg>